<svg xmlns="http://www.w3.org/2000/svg" width="179" height="136" overflow="hidden" xmlns:v="https://vecta.io/nano"><style><![CDATA[.B{fill:#2f5597}.C{font-family:Arial,Arial_MSFontService,sans-serif}.D{font-size:16px}.E{fill-rule:evenodd}.F{stroke:#172c51}.G{stroke-width:1.333}.H{stroke-miterlimit:8}.I{fill:#4472c4}.J{fill-opacity:.502}]]></style><path d="M2.5 68.5c0-36.451 10.969-66 24.5-66s24.5 29.549 24.5 66-10.969 66-24.5 66-24.5-29.549-24.5-66z" fill="#bfbfbf" class="E J"/><path d="M1.166 68.5l.501-13.403 1.44-12.495 2.28-11.314 1.433-5.162 1.606-4.761 1.774-4.343 1.934-3.895 2.088-3.418 2.241-2.908 2.397-2.364 2.562-1.774 2.724-1.12L27 1.154l2.854.389 2.724 1.12 2.562 1.774 2.397 2.364 2.241 2.908 2.089 3.418 1.933 3.895 1.774 4.343 1.606 4.761 1.433 5.162 2.28 11.314 1.44 12.495.501 13.403-.501 13.403-1.44 12.496-2.28 11.313-1.433 5.162-1.606 4.761-1.774 4.343-1.933 3.896-2.089 3.417-2.241 2.908-2.397 2.364-2.562 1.774-2.724 1.12-2.854.389-2.854-.389-2.724-1.12-2.562-1.774-2.397-2.364-2.241-2.908-2.088-3.417-1.934-3.896-1.774-4.343-1.606-4.761-1.433-5.162-2.28-11.313-1.44-12.496zM4.33 81.752l-.008-.103L5.75 94.038l-.018-.111 2.259 11.211-.022-.093 1.41 5.081-.021-.07 1.581 4.687-.029-.078 1.74 4.26-.04-.089 1.886 3.799-.056-.102 2.02 3.306-.082-.119 2.142 2.78-.12-.136 2.251 2.219-.177-.146 2.348 1.626-.253-.137 2.433 1-.327-.088 2.505.341h-.36l2.505-.341-.327.088 2.433-1-.253.137 2.348-1.626-.177.146 2.251-2.219-.12.136 2.142-2.78-.082.119 2.02-3.306-.056.102 1.886-3.799-.04.089 1.74-4.26-.029.078 1.581-4.687-.021.07 1.41-5.081-.022.093 2.259-11.211-.018.111 1.428-12.389-.008.102.498-13.301v.1l-.498-13.301.008.102-1.428-12.388.018.11-2.259-11.211.022.093-1.41-5.08.021.069-1.581-4.687.029.078-1.74-4.26.04.089-1.886-3.799.056.102-2.02-3.306.082.119-2.142-2.779.12.135-2.251-2.219.177.146-2.348-1.626.253.137-2.433-1 .327.088-2.505-.341h.36l-2.505.341.327-.088-2.433 1 .253-.137-2.348 1.626.177-.146L18.4 8.636l.12-.135-2.142 2.779.082-.119-2.02 3.306.056-.102-1.886 3.799.04-.089-1.74 4.26.029-.078-1.581 4.687.021-.069-1.41 5.08.022-.093-2.259 11.211.018-.11-1.428 12.388.008-.102-.498 13.301v-.1z" fill="#a6a6a6"/><g class="E"><path d="M28.5 99a3.5 3.5 0 1 1 7 0 3.5 3.5 0 1 1-7 0z" class="F G H I"/><path d="M128.5 68.5c0-36.451 10.969-66 24.5-66s24.5 29.549 24.5 66-10.969 66-24.5 66-24.5-29.549-24.5-66z" fill="#bfbfbf" class="J"/></g><path d="M127.166 68.5l.501-13.403 1.44-12.495 2.28-11.314 1.433-5.162 1.606-4.761 1.774-4.343 1.934-3.895 2.088-3.418 2.241-2.908 2.397-2.364 2.562-1.774 2.724-1.12L153 1.154l2.854.389 2.724 1.12 2.562 1.774 2.397 2.364 2.241 2.908 2.089 3.418 1.933 3.895 1.774 4.343 1.606 4.761 1.433 5.162 2.28 11.314 1.44 12.495.501 13.403-.501 13.403-1.44 12.496-2.28 11.313-1.433 5.162-1.606 4.761-1.774 4.343-1.933 3.896-2.089 3.417-2.241 2.908-2.397 2.364-2.562 1.774-2.724 1.12-2.854.389-2.854-.389-2.724-1.12-2.562-1.774-2.397-2.364-2.241-2.908-2.088-3.417-1.934-3.896-1.774-4.343-1.606-4.761-1.433-5.162-2.28-11.313-1.44-12.496zm3.164 13.252l-.008-.103 1.428 12.389-.018-.111 2.259 11.211-.022-.093 1.41 5.081-.021-.07 1.581 4.687-.029-.078 1.74 4.26-.04-.089 1.886 3.799-.056-.102 2.02 3.306-.082-.119 2.142 2.78-.12-.136 2.251 2.219-.177-.146 2.348 1.626-.253-.137 2.433 1-.327-.088 2.505.341h-.36l2.505-.341-.327.088 2.433-1-.253.137 2.348-1.626-.177.146 2.251-2.219-.12.136 2.142-2.78-.082.119 2.02-3.306-.056.102 1.886-3.799-.04.089 1.74-4.26-.029.078 1.581-4.687-.021.07 1.41-5.081-.022.093 2.259-11.211-.018.111 1.428-12.389-.008.102.498-13.301v.1l-.498-13.301.008.102-1.428-12.388.018.11-2.259-11.211.022.093-1.41-5.08.021.069-1.581-4.687.029.078-1.74-4.26.04.089-1.886-3.799.056.102-2.02-3.306.082.119-2.142-2.779.12.135-2.251-2.219.177.146-2.348-1.626.253.137-2.433-1 .327.088-2.505-.341h.36l-2.505.341.327-.088-2.433 1 .253-.137-2.348 1.626.177-.146-2.251 2.219.12-.135-2.142 2.779.082-.119-2.02 3.306.056-.102-1.886 3.799.04-.089-1.74 4.26.029-.078-1.581 4.687.021-.069-1.41 5.08.022-.093-2.259 11.211.018-.11-1.428 12.388.008-.102-.498 13.301v-.1z" fill="#a6a6a6"/><path d="M143.5 31a3.5 3.5 0 1 1 7 0 3.5 3.5 0 1 1-7 0zm0 41a3.5 3.5 0 1 1 7 0 3.5 3.5 0 1 1-7 0zm0 41a3.5 3.5 0 1 1 7 0 3.5 3.5 0 1 1-7 0z" class="E F G H I"/><text transform="translate(14.806 105)" class="B C D">2</text><text transform="translate(12.559 49)" class="B C D">1</text><path d="M26.5 43a3.5 3.5 0 1 1 7 0 3.5 3.5 0 1 1-7 0z" class="E F G H I"/><text transform="translate(155.376 38)" class="B C D">1</text><text transform="translate(155.376 78)" class="B C D">2</text><text transform="translate(155.376 119)" class="B C D">3</text><g fill="#7030a0"><path d="M33.573 44.219L136.79 32.89l-.146-1.325L33.427 42.893zm102.255-7.87l7.516-4.849-8.389-3.103zM35.646 98.356l101.093-22.742-.293-1.301L35.354 97.056zM136.17 79.159l6.927-5.658-8.683-2.147z"/><path d="M32.833 44.922l106.118 61.169-.666 1.155L32.167 46.078zm106.628 57.615l4.933 7.461-8.928-.53z"/></g></svg>