<svg xmlns="http://www.w3.org/2000/svg" width="126" height="104" overflow="hidden" xmlns:v="https://vecta.io/nano"><path d="M2.5 99a3.5 3.5 0 1 1 7 0 3.5 3.5 0 1 1-7 0zm115 0a3.5 3.5 0 1 1 7 0 3.5 3.5 0 1 1-7 0zm-57 0a3.5 3.5 0 1 1 7 0 3.5 3.5 0 1 1-7 0zm0-48a3.5 3.5 0 1 1 7 0 3.5 3.5 0 1 1-7 0z" stroke="#172c51" stroke-width="1.333" stroke-miterlimit="8" fill="#b4c7e7" fill-rule="evenodd"/><text fill="#8faadc" font-family="Arial,Arial_MSFontService,sans-serif" font-size="16" transform="translate(39.98 57)">v</text><path d="M8.5 96.944L61.347 53.5M63.5 95.894V54.5m55.624 42.459L66.5 53.5m-5.588-6.146c-12.622-1.429-21.695-12.82-20.266-25.442S53.466.217 66.088 1.646s21.695 12.82 20.266 25.442C85.105 38.12 76.153 46.685 65.076 47.446" stroke-width="1.333" stroke-miterlimit="8" stroke="#8faadc" fill="none"/></svg>