<svg xmlns="http://www.w3.org/2000/svg" width="240" height="241" overflow="hidden" xmlns:v="https://vecta.io/nano"><style><![CDATA[.B{fill:#a6a6a6}.C{font-family:Arial,Arial_MSFontService,sans-serif}.D{stroke-miterlimit:8}.E{stroke:#a6a6a6}.F{fill-rule:evenodd}.G{stroke-dasharray:4 3}]]></style><defs><clipPath id="A"><path d="M44 359h240v241H44z"/></clipPath></defs><g clip-path="url(#A)" transform="translate(-44 -359)"><g class="B"><path d="M74.833 571.659V374.166h-2.667v197.493zM77.5 375.5l-4-8-4 8z"/><path d="M71.5 570.167h197.277v2.666H71.5zm195.944-2.667l8 4-8 4z"/></g><g stroke-width="1.333" fill="none" class="D"><path d="M73.5 384.5l188.116 187.83" stroke="red"/><path d="M73.5 572.33l188.115-187.829" stroke="#00b0f0"/><g stroke-dasharray="5.33333 4" class="E"><path d="M73.5 384.5h188.116m-.116 0v187.83"/></g></g><path d="M160 477.5a6.5 6.5 0 1 1 13 0 6.5 6.5 0 1 1-13 0z" fill="#a365d1" class="F"/><text font-weight="700" font-size="14" transform="translate(134.495 588)" class="B C">sending rate of B</text><text font-weight="700" font-size="14" transform="matrix(0 -1 1 0 63.3129 510)" class="B C">sending rate of A</text><g class="B F"><path d="M92 462c0-2.209 1.567-4 3.5-4s3.5 1.791 3.5 4-1.567 4-3.5 4-3.5-1.791-3.5-4zm15-16.5c0-1.933 1.791-3.5 4-3.5s4 1.567 4 3.5-1.791 3.5-4 3.5-4-1.567-4-3.5zm15-17.5c0-2.209 1.567-4 3.5-4s3.5 1.791 3.5 4-1.567 4-3.5 4-3.5-1.791-3.5-4zm16-16.5a3.5 3.5 0 1 1 7 0 3.5 3.5 0 1 1-7 0zm-14 64a3.5 3.5 0 1 1 7 0 3.5 3.5 0 1 1-7 0zm16-17a3.5 3.5 0 1 1 7 0 3.5 3.5 0 1 1-7 0zm14-17c0-1.933 1.791-3.5 4-3.5s4 1.567 4 3.5-1.791 3.5-4 3.5-4-1.567-4-3.5zm-6 41a3.5 3.5 0 1 1 7 0 3.5 3.5 0 1 1-7 0z"/></g><path d="M98.5 460.38l40.901-45.88" fill="none" class="D E G"/><path d="M142.001 415.381l-.952 3.885.971.238.952-3.885zm-1.667 6.799l-.952 3.885.971.238.952-3.885zm-1.667 6.799l-.952 3.885.971.238.952-3.885zm-1.667 6.799l-.952 3.885.971.238.952-3.885zm-1.667 6.799l-.952 3.885.971.238.952-3.885zm-1.667 6.799l-.952 3.885.971.238.952-3.885zM132 456.173l-.952 3.885.971.238.952-3.885zm-1.667 6.799l-.952 3.885.971.238.952-3.885zm-.564 4.399l-1.955-3.225.685 8.405 4.495-7.135z" class="B"/><path d="M130.5 473.722l30.397-34.222" fill="none" class="D E G"/><path d="M158.381 445.414l-.685 3.941.985.171.685-3.941zm-1.199 6.897l-.685 3.941.985.171.685-3.941zm-1.199 6.897l-.685 3.941.985.171.685-3.941zm-1.199 6.897l-.685 3.941.985.171.685-3.941zm-1.199 6.897l-.665 3.823.985.171.665-3.823zm-.172 3.909l-2.171-3.084 1.257 8.339 3.997-7.425z" class="B"/><text fill="#9dc3e6" font-size="12" transform="matrix(.741688 -.670745 .670745 .741688 222.568 416)" class="C">A = B</text><text fill="#ff9797" font-size="12" transform="matrix(.674672 .738117 -.738117 .674672 188.815 488)" class="C">A + B = bandwidth</text></g></svg>