<svg xmlns="http://www.w3.org/2000/svg" xmlns:xlink="http://www.w3.org/1999/xlink" width="327" height="131" overflow="hidden" xmlns:v="https://vecta.io/nano"><style><![CDATA[.B{font-family:Arial,Arial_MSFontService,sans-serif}.C{stroke:#bfbfbf}.D{stroke-width:1.333}.E{stroke-miterlimit:8}.F{stroke-opacity:.502}.G{fill-rule:evenodd}.H{fill-opacity:.502}.I{fill:#0d0d0d}.J{font-size:11px}.K{fill:#a5a5a5}.L{fill:#a6a6a6}]]></style><defs><clipPath id="A"><path d="M308 462h327v131H308z"/></clipPath><path id="B" d="M382.5 579.5c0-7.18 10.521-13 23.5-13s23.5 5.82 23.5 13-10.521 13-23.5 13-23.5-5.82-23.5-13z"/><path id="C" d="M407.167 566.549v-17.715c0-.368-.298-.667-.667-.667s-.667.298-.667.667v17.715c0 .368.298.667.667.667s.667-.298.667-.667zm-.667-17.715l4 2.667-4-8-4 8z"/></defs><g clip-path="url(#A)" transform="translate(-308 -462)"><text font-size="16" transform="translate(573.578 483)" class="B L">Transit</text><text font-size="16" transform="translate(573.578 502)" class="B L">Pee</text><text font-size="16" transform="translate(601.912 502)" class="B L">r</text><use xlink:href="#B" fill="#ed7d31" class="C D E F G H"/><text transform="translate(402.576 582)" class="B I J">6</text><use xlink:href="#C" class="K"/><path d="M310.5 579.5c0-7.18 10.521-13 23.5-13s23.5 5.82 23.5 13-10.521 13-23.5 13-23.5-5.82-23.5-13z" fill="#bfbfbf" class="C D E F G H"/><text transform="translate(330.078 582)" class="B I J">5</text><path d="M334.167 566.549v-17.715c0-.368-.298-.667-.667-.667s-.667.298-.667.667v17.715c0 .368.298.667.667.667s.667-.298.667-.667zm-.667-17.715l4 2.667-4-8-4 8z" class="K"/><path d="M455.5 579.5c0-7.18 10.521-13 23.5-13s23.5 5.82 23.5 13-10.521 13-23.5 13-23.5-5.82-23.5-13z" fill="#ff0" class="C D E F G H"/><text transform="translate(475.074 582)" class="B I J">7</text><path d="M479.167 566.549v-17.715c0-.368-.298-.667-.667-.667s-.667.298-.667.667v17.715c0 .368.298.667.667.667s.667-.298.667-.667zm-.667-17.715l4 2.667-4-8-4 8z" class="K"/><path d="M382.5 530.5c0-7.18 10.521-13 23.5-13s23.5 5.82 23.5 13-10.521 13-23.5 13-23.5-5.82-23.5-13z" fill="#2e75b6" class="C D E F G H"/><text transform="translate(402.576 533)" class="B I J">3</text><path d="M310.5 530.5c0-7.18 10.521-13 23.5-13s23.5 5.82 23.5 13-10.521 13-23.5 13-23.5-5.82-23.5-13z" fill="#bfbfbf" class="C D E F G H"/><text transform="translate(330.078 533)" class="B I J">2</text><path d="M455.5 530.5c0-7.18 10.521-13 23.5-13s23.5 5.82 23.5 13-10.521 13-23.5 13-23.5-5.82-23.5-13z" fill="#548235" class="C D E F G H"/><text transform="translate(475.074 533)" class="B I J">4</text><g class="K"><path d="M357.5 528.833h25.49v1.112H357.5zm0 2.223h25.49v1.111H357.5zm72-2.223h25.49v1.112H429.5zm0 2.223h25.49v1.111H429.5z"/></g><path d="M382.5 481.5c0-7.18 10.521-13 23.5-13s23.5 5.82 23.5 13-10.521 13-23.5 13-23.5-5.82-23.5-13z" fill="#bf95df" class="C D E F G H"/><text transform="translate(402.576 485)" class="B I J">1</text><g class="K"><path d="M407.167 517.339v-17.506c0-.368-.298-.667-.667-.667s-.667.298-.667.667v17.506c0 .368.298.667.667.667s.667-.298.667-.667zm-.667-17.506l4 2.667-4-8-4 8zm133-23h15.838c.368 0 .666.299.666.667s-.298.667-.666.667H539.5a.67.67 0 0 1-.667-.667.67.67 0 0 1 .667-.667zm15.838.667l-2.667-4 8 4-8 4zM539.5 493.833h18.073v1.112H539.5zm0 2.223h18.073v1.111H539.5z"/></g></g></svg>