<svg xmlns="http://www.w3.org/2000/svg" width="392" height="217" overflow="hidden" xmlns:v="https://vecta.io/nano"><style><![CDATA[.B{stroke-miterlimit:8}.C{fill:#a6a6a6}.D{font-family:Arial,Arial_MSFontService,sans-serif}.E{stroke:#a6a6a6}.F{stroke-width:.333}.G{fill:#ff8f8f}.H{fill-opacity:.498}.I{fill:#a5a5a5}.J{font-size:13px}.K{fill-rule:evenodd}.L{fill-opacity:.502}.M{font-size:11px}.N{stroke-width:1.333}]]></style><defs><clipPath id="A"><path d="M16 41h392v217H16z"/></clipPath></defs><g clip-path="url(#A)" transform="translate(-16 -41)"><path d="M57.5 195.5h20v23h-20z" class="B E F G H"/><path d="M68.167 196.022V81.5h-1.333v114.522zM71.5 82.833l-4-5.333-4 5.333z" class="I"/><g class="B E F"><path d="M145.5 195.5h20v23h-20z" class="G H"/><g fill="#8faadc" class="K L"><path d="M232.5 154.5a6 6 0 1 1 12 0 6 6 0 1 1-12 0zm-83 0a6 6 0 1 1 12 0 6 6 0 1 1-12 0z"/></g><path d="M187.5 195.5h20v23h-20z" class="G H"/></g><path d="M197.974 196.179l33.062-33.418-.948-.938-33.062 33.418zm32.588-33.887l.968 4.709 2.783-8.5-8.47 2.874z" class="I"/><path d="M312.5 195.5h20v23h-20z" class="B E F G H"/><path d="M154.925 195.886l-.078-30.051 1.334-.003.077 30.051zm.589-30.053l-3.993 2.677 3.979-8.01 4.021 7.99z" class="I"/><path d="M227.5 195.5h20v23h-20z" class="B E F G H"/><path d="M238.166 195.74l.761-29.891-1.333-.034-.761 29.891zm.094-29.908l3.931 2.768-3.795-8.099-4.202 7.896z" class="I"/><g class="B E F K L"><g fill="#8faadc"><path d="M60.5 77.5l7-13 7 13zm127 0l7-13 7 13z"/></g><path d="M149.5 114c0-3.59 2.686-6.5 6-6.5s6 2.91 6 6.5-2.686 6.5-6 6.5-6-2.91-6-6.5z" fill="#d9d9d9"/></g><g stroke="#a5a5a5" fill="none" class="N B"><path d="M155.5 148.47V120.5m6 34h70.894"/></g><path d="M232.5 114.5a6 6 0 1 1 12 0 6 6 0 1 1-12 0z" fill="#d9d9d9" class="B E F K L"/><g stroke="#a5a5a5" fill="none" class="N B"><path d="M187.308 77.5L159.5 109.565m74.309.556L201.5 77.5m37 70.415l.03-27.415"/></g><g class="E F G B H"><path d="M383.5 195.5h21v23h-21zm-70-124h20v23h-20zm71 0h21v23h-21z"/></g><g class="I"><path d="M323.277 184.142l.712-77.636-1.333-.012-.712 77.636zm-3.321-1.364l2.544 13.357 2.789-13.308zm6.021-74.921L323.432 94.5l-2.789 13.308zm69.3 76.285l.712-77.636-1.333-.012-.712 77.636zm-3.321-1.364l2.544 13.357 2.789-13.308zm6.021-74.921L395.432 94.5l-2.789 13.308zm-26.493 97.976H344.5v1.333h26.984zm-1.333 3.333l13.333-2.667-13.333-2.667zm-24.318-5.333L332.5 206.5l13.333 2.667zm26.651-122H345.5v1.333h26.984zm-1.333 3.333l13.333-2.667-13.333-2.667zm-24.318-5.333L333.5 82.5l13.333 2.667z"/></g><text transform="translate(53.375 57)" class="C D M">Origin</text><text transform="translate(189.476 57)" class="C D M">Origin</text><text transform="translate(121.23 157)" class="C D M">CDN</text><text transform="translate(257.226 157)" class="C D M">CDN</text><text transform="translate(26.342 246)" class="C D J">Client</text><text transform="translate(60.342 246)" class="C D J">-</text><text transform="translate(64.842 246)" class="C D J">Server</text><text transform="translate(181.973 246)" class="C D J">CDN</text><text transform="translate(346.363 246)" class="C D J">P2P</text></g></svg>