<svg xmlns="http://www.w3.org/2000/svg" width="302" height="99" overflow="hidden" xmlns:v="https://vecta.io/nano"><style><![CDATA[.B{font-family:Arial,Arial_MSFontService,sans-serif}.C{font-size:12px}.D{stroke:#7f7f7f}.E{stroke-width:.333}.F{stroke-miterlimit:8}.G{fill:#deebf7}.H{fill-rule:evenodd}.I{stroke:#a5a5a5}.J{stroke-width:1.333}.K{stroke-width:.042}]]></style><defs><clipPath id="A"><path d="M199 384h302v99H199z"/></clipPath><clipPath id="B"><path d="M280 414h43v43h-43z"/></clipPath><clipPath id="C"><path d="M280 414h43v43h-43z"/></clipPath><clipPath id="D"><path d="M280 414h43v43h-43z"/></clipPath><clipPath id="E"><path d="M375 413h43v44h-43z"/></clipPath><clipPath id="F"><path d="M375 413h43v44h-43z"/></clipPath><clipPath id="G"><path d="M375 413h43v44h-43z"/></clipPath></defs><g clip-path="url(#A)" transform="translate(-199 -384)"><path d="M203.5 389.5h25v13h-25z" class="D E F G"/><text transform="translate(211.491 400)" class="B C">A</text><g class="D E F G"><path d="M200.5 409.5l3.75-7h23.5l3.75 7z" class="H"/><path d="M203.5 461.5h24v14h-24z"/></g><text transform="translate(211.438 473)" class="B C">B</text><g class="D E F G"><path d="M200.5 482.5l3.75-7h23.5l3.75 7z" class="H"/><path d="M472.5 389.5h24v14h-24z"/></g><text transform="translate(479.982 401)" class="B C">D</text><g class="D E F G"><path d="M469.5 410.5l3.75-7h23.5l3.75 7z" class="H"/><path d="M472.5 462.5h24v13h-24z"/></g><text transform="translate(479.929 473)" class="B C">C</text><g class="F"><path d="M469.5 482.5l3.75-7h23.5l3.75 7z" class="D E G H"/><g class="I"><g fill="none" class="J"><path d="M472.34 468.821 414.5 436.5"/><path d="M472.392 396.5L414.5 436.648"/></g><path d="M379.333 436.5H318.5" stroke-width="2.667" fill="none"/><g class="J"><path d="M282.516 435.5L227.5 468.117" fill="none"/><path d="M283.463 436.351 228.5 396.5" fill="none"/></g></g></g><text fill="#a6a6a6" transform="translate(292.915 462)" class="B C">R1</text><text fill="#a6a6a6" transform="translate(388.14 462)" class="B C">R2</text><g fill="#a5a5a5"><path d="M250.691 406.227l17.811 12.4-.381.547-17.811-12.4zm18.05 9.723l2.853 5.236-5.9-.859zm-18.074 44.933l17.472-10.093-.333-.577-17.472 10.093zm17.485-7.405l3.284-4.977-5.952.358zm71.348-24.311h21.655v.666H339.5zm20.322-2.334l5.333 2.667-5.333 2.667z"/></g><g clip-path="url(#B)" class="I K"><g clip-path="url(#C)"><g clip-path="url(#D)"><path d="M283.233 430.94v9.595c.063 3.935 8.218 7.705 18.267 7.705s18.199-3.77 18.267-7.705v-9.595h-36.534z" fill="#1b9bdb"/><path d="M319.767 430.91c0 4.174-8.18 8.147-18.267 8.147s-18.267-3.973-18.267-8.147 8.18-7.558 18.267-7.558 18.267 3.38 18.267 7.558z" fill="#3ed6ff"/><path d="M299.909 427.076h1.213l.004 2.654h1.239l-.029-2.654h1.213l-1.835-3.153zm2.473 4.443h-1.256l.004 3.103h-1.284l1.94 3.158 1.91-3.158h-1.285zm5.102-1.524l-.059-1.26-3.028 1.89 3.209 1.894-.059-1.26h5.299l-.109-1.264zm-11.481 0h-5.249l-.096 1.264h5.299l-.046 1.26 3.187-1.894-3.044-1.89z" fill="#fff"/></g></g></g><g clip-path="url(#E)" class="I K"><g clip-path="url(#F)"><g clip-path="url(#G)"><path d="M378.233 430.334v9.818c.063 4.026 8.218 7.885 18.267 7.885s18.199-3.859 18.267-7.885v-9.818h-36.533z" fill="#1b9bdb"/><path d="M414.767 430.304c0 4.271-8.18 8.336-18.267 8.336s-18.267-4.065-18.267-8.336 8.18-7.734 18.267-7.734 18.267 3.459 18.267 7.734z" fill="#3ed6ff"/><path d="M394.909 426.381h1.214l.004 2.716h1.239l-.029-2.716h1.214l-1.835-3.227zm2.473 4.546h-1.255l.004 3.175h-1.285l1.94 3.231 1.911-3.231h-1.285zm5.102-1.56l-.059-1.289-3.028 1.934 3.208 1.938-.059-1.289h5.299l-.109-1.293zm-11.481 0h-5.249l-.097 1.293h5.299l-.046 1.289 3.187-1.938-3.044-1.934z" fill="#fff"/></g></g></g></g></svg>