<svg xmlns="http://www.w3.org/2000/svg" xmlns:xlink="http://www.w3.org/1999/xlink" width="841" height="256" overflow="hidden" xmlns:v="https://vecta.io/nano"><style><![CDATA[.B{font-family:Arial,Arial_MSFontService,sans-serif}.C{font-size:13px}.D{fill:#0d0d0d}.E{font-weight:700}.F{fill-opacity:.502}.G{font-style:italic}.H{fill:#1f4e79}]]></style><defs><clipPath id="A"><path d="M17 310h841v256H17z"/></clipPath><clipPath id="B"><path d="M131 171h155v337H131z"/></clipPath><clipPath id="C"><path d="M131 171h155v337H131z"/></clipPath><clipPath id="D"><path d="M646 353h210v113H646z"/></clipPath><clipPath id="E"><path d="M424 353h223v113H424z"/></clipPath><clipPath id="F"><path d="M131 353h155v337H131z"/></clipPath><clipPath id="G"><path d="M18 409h114v225H18z"/></clipPath><clipPath id="H"><path d="M18 409h114v225H18z"/></clipPath><clipPath id="I"><path d="M285 465h140v113H285z"/></clipPath><clipPath id="J"><path d="M285 465h140v113H285z"/></clipPath><clipPath id="K"><path d="M285 493h140v113H285z"/></clipPath><clipPath id="L"><path d="M285 493h140v113H285z"/></clipPath><path id="M" d="M285.799 367.061h138.478v28H285.799z"/><path id="N" d="M424.277 367.061h221.735v28H424.277z"/></defs><g clip-path="url(#A)" transform="translate(-17 -310)"><g fill="#fff" fill-rule="evenodd" class="F"><path d="M18.189 311.061h113.382v56H18.189z"/><path d="M131.571 311.061h154.228v56H131.571z"/><path d="M285.799 311.061h138.478v56H285.799z"/><path d="M424.277 311.061h221.735v56H424.277z"/><path d="M646.012 311.061h209.84v56h-209.84zm-627.823 56h113.382v56H18.189z"/><path d="M131.571 367.061h154.228v56H131.571z"/><use xlink:href="#M"/><use xlink:href="#N"/><path d="M646.012 367.061h209.84v28h-209.84zm-360.213 28h138.478v28H285.799z"/><path d="M424.277 395.061h221.735v28H424.277z"/><path d="M646.012 395.061h209.84v28h-209.84zm-627.823 28h113.382v56H18.189z"/><path d="M131.571 423.061h154.228v56H131.571z"/><path d="M285.799 423.061h138.478v56H285.799z"/><path d="M424.277 423.061h221.735v56H424.277z"/><path d="M646.012 423.061h209.84v56h-209.84zm-627.823 56h113.382v84H18.189z"/><path d="M131.571 479.061h154.228v84H131.571z"/><path d="M285.799 479.061h138.478v28H285.799z"/><path d="M424.277 479.061h221.735v28H424.277z"/><path d="M646.012 479.061h209.84v28h-209.84zm-360.213 28h138.478v28H285.799z"/><path d="M424.277 507.061h221.735v28H424.277z"/><path d="M646.012 507.061h209.84v28h-209.84zm-360.213 28h138.478v28H285.799z"/><path d="M424.277 535.061h221.735v28H424.277z"/><path d="M646.012 535.061h209.84v28h-209.84z"/></g><g stroke="#000" stroke-width="1.333" stroke-linejoin="round" stroke-miterlimit="10" fill="none"><path d="M131.571 310.395v253.333m154.228-253.333v253.333m138.478-253.333v253.333m221.735-253.333v253.333"/><path d="M17.522 367.061h838.997m-571.386 28h571.386m-838.997 28h838.997m-838.997 56h838.997m-571.386 28h571.386m-571.386 28h571.386"/><path d="M18.189 310.395v253.333m837.663-253.333v253.333"/><path d="M17.522 311.061h838.997m-838.997 252h838.997"/></g><text transform="translate(715.099 344)" class="B C E H">pros/cons?</text><text transform="translate(446.811 344)" class="B C E H">how does the protocol work</text><text transform="translate(300.038 344)" class="B C E H">example protocol</text><g clip-path="url(#B)" class="B C E H"><text transform="translate(138.852 328)">what does this type of</text></g><g clip-path="url(#C)" class="B C E H"><text transform="translate(145.605 344)">management allow a</text></g><text transform="translate(169.852 360)" class="B C E H">switch to do</text><text transform="translate(53.047 336)" class="B C E H">type of</text><text transform="translate(33.88 352)" class="B C E H">management</text><text transform="translate(677.349 386)" class="B C D">simple, but queue get full</text><text transform="translate(446.145 386)" class="B C D">drop packets before queue full</text><text transform="translate(328.038 386)" class="B C D E">DropTail</text><text transform="translate(154.602 384)" class="B C D">Signal congestion,</text><text transform="translate(158.269 400)" class="B C D">potentially before</text><text transform="translate(165.269 416)" class="B C D">queues are full</text><text transform="translate(54.214 392)" class="B C D E G">Queue</text><text transform="translate(34.214 408)" class="B C D E G">Management</text><g clip-path="url(#D)" class="B C D"><text transform="translate(650.182 414)">queue not get full, but complicated</text></g><g clip-path="url(#E)" class="B C D"><text transform="translate(429.478 414)">drop/mark packets before queue full</text></g><text transform="translate(323.205 414)" class="B C D E">RED, ECN</text><text transform="translate(690.599 456)" class="B C D">starve out the others</text><text transform="translate(436.478 456)" class="B C D">serve some queues before others</text><text transform="translate(298.872 456)" class="B C D E">Priority</text><text transform="translate(345.372 456)" class="B C D E">-</text><text transform="translate(349.872 456)" class="B C D E">Queueing</text><text transform="translate(183.519 448)" class="B C D">prioritize</text><text transform="translate(141.519 464)" class="B C D">latency</text><text transform="translate(183.519 464)" class="B C D">-</text><text transform="translate(188.019 464)" class="B C D">sensitive traffic</text><text transform="translate(35.797 448)" class="B C D E G">Delay</text><text transform="translate(71.13 448)" class="B C D E G">-</text><text transform="translate(75.63 448)" class="B C D E G">based</text><text transform="translate(39.05 464)" class="B C D E G">Scheduling</text><text transform="translate(655.432 498)" class="B C D">can't handle variable packet size</text><text transform="translate(461.228 498)" class="B C D">equal share of bandwidth</text><text transform="translate(296.705 498)" class="B C D E">Round</text><text transform="translate(339.038 498)" class="B C D E">-</text><text transform="translate(343.538 498)" class="B C D E">Robin (RR)</text><text transform="translate(155.602 510)" class="B C D">enforce (weighted)</text><g clip-path="url(#F)" class="B C D"><text transform="translate(135.769 526)">fairness among different</text></g><text transform="translate(167.435 542)" class="B C D">types of traffic</text><g clip-path="url(#G)" class="B C D E G"><text transform="translate(19.38 518)">Bandwidth</text></g><text transform="translate(87.547 518)" class="B C D E G">-</text><g clip-path="url(#H)" class="B C D E G"><text transform="translate(92.047 518)">based</text></g><text transform="translate(39.047 534)" class="B C D E G">Scheduling</text><text transform="translate(670.016 526)" class="B C D">hard to get avg. packet size</text><text transform="translate(462.478 526)" class="B C D">RR with avg. packet size</text><g clip-path="url(#I)" class="B C D E"><text transform="translate(288.622 526)">Weight Round</text></g><text transform="translate(379.122 526)" class="B C D E">-</text><g clip-path="url(#J)" class="B C D E"><text transform="translate(383.622 526)">Robin</text></g><text transform="translate(709.766 554)" class="B C D">honestly good</text><text transform="translate(456.228 554)" class="B C D">RR, with better packet size</text><g clip-path="url(#K)" class="B C D E"><text transform="translate(290.538 554)">Deficit Round</text></g><text transform="translate(377.205 554)" class="B C D E">-</text><g clip-path="url(#L)" class="B C D E"><text transform="translate(381.705 554)">Robin</text></g></g></svg>