<svg xmlns="http://www.w3.org/2000/svg" xmlns:xlink="http://www.w3.org/1999/xlink" width="335" height="206" overflow="hidden" xmlns:v="https://vecta.io/nano"><style><![CDATA[.B{stroke-opacity:.502}.C{fill-opacity:.502}.D{stroke:#bfbfbf}.E{stroke-width:1.333}.F{stroke-miterlimit:8}.G{fill-rule:evenodd}.H{fill:#a5a5a5}.I{fill:#bfbfbf}.J{font-family:Arial,Arial_MSFontService,sans-serif}]]></style><defs><clipPath id="A"><path d="M846 378h335v206H846z"/></clipPath><path id="B" d="M920.5 570.5c0-7.18 10.521-13 23.5-13s23.5 5.82 23.5 13-10.521 13-23.5 13-23.5-5.82-23.5-13z"/><path id="C" d="M944.167 557.549v-17.715c0-.368-.298-.667-.667-.667s-.667.298-.667.667v17.715c0 .368.298.667.667.667s.667-.298.667-.667zm-.667-17.715l4 2.667-4-8-4 8z"/><path id="D" d="M992.5 570.5c0-7.18 10.52-13 23.5-13s23.5 5.82 23.5 13-10.52 13-23.5 13-23.5-5.82-23.5-13z"/></defs><g clip-path="url(#A)" transform="translate(-846 -378)"><text fill="#a6a6a6" font-size="16" transform="translate(1119.93 407)" class="J">Transit</text><text fill="#a6a6a6" font-size="16" transform="translate(1119.93 426)" class="J">Peer</text><use xlink:href="#B" fill="#ed7d31" class="B C D E F G"/><use xlink:href="#C" class="H"/><path d="M847.5 570.5c0-7.18 10.521-13 23.5-13s23.5 5.82 23.5 13-10.521 13-23.5 13-23.5-5.82-23.5-13z" class="B C D E F G I"/><path d="M872.167 557.549v-17.715c0-.368-.298-.667-.667-.667s-.667.298-.667.667v17.715c0 .368.298.667.667.667s.667-.298.667-.667zm-.667-17.715l4 2.667-4-8-4 8z" class="H"/><use xlink:href="#D" fill="#ff0" class="B C D E F G"/><path d="M1017.167 557.549v-17.715c0-.368-.298-.667-.667-.667s-.667.298-.667.667v17.715c0 .368.298.667.667.667s.667-.298.667-.667zm-.667-17.715l4 2.667-4-8-4 8z" class="H"/><g class="D E F G B C"><path d="M920.5 521.5c0-7.18 10.521-13 23.5-13s23.5 5.82 23.5 13-10.521 13-23.5 13-23.5-5.82-23.5-13z" fill="#2e75b6"/><path d="M847.5 521.5c0-7.18 10.521-13 23.5-13s23.5 5.82 23.5 13-10.521 13-23.5 13-23.5-5.82-23.5-13z" class="I"/><path d="M992.5 521.5c0-7.18 10.52-13 23.5-13s23.5 5.82 23.5 13-10.52 13-23.5 13-23.5-5.82-23.5-13z" fill="#548235"/></g><g class="H"><path d="M894.5 519.833h25.49v1.112H894.5zm0 2.223h25.49v1.111H894.5zm73-2.223h25.49v1.112H967.5zm0 2.223h25.49v1.111H967.5z"/></g><path d="M920.5 472.5c0-7.18 10.521-13 23.5-13s23.5 5.82 23.5 13-10.521 13-23.5 13-23.5-5.82-23.5-13z" fill="#bf95df" class="B C D E F G"/><g class="H"><path d="M944.167 508.339v-17.506c0-.368-.298-.667-.667-.667s-.667.298-.667.667v17.506c0 .368.298.667.667.667s.667-.298.667-.667zm-.667-17.506l4 2.667-4-8-4 8zm143-91h15.84a.66.66 0 0 1 .66.667.66.66 0 0 1-.66.667h-15.84a.67.67 0 0 1-.67-.667.67.67 0 0 1 .67-.667zm15.84.667l-2.67-4 8 4-8 4zm-15.84 16.333h18.07v1.112h-18.07zm0 2.223h18.07v1.111h-18.07z"/></g><path d="M847.5 472.5c0-7.18 10.521-13 23.5-13s23.5 5.82 23.5 13-10.521 13-23.5 13-23.5-5.82-23.5-13z" class="B C D E F G I"/><path d="M872.167 459.188v-48.355c0-.368-.298-.667-.667-.667s-.667.298-.667.667v48.354c0 .368.298.667.667.667s.667-.298.667-.667zm-.667-48.355l4 2.667-4-8-4 8z" class="H"/><path d="M847.5 392.5c0-7.18 10.521-13 23.5-13s23.5 5.82 23.5 13-10.521 13-23.5 13-23.5-5.82-23.5-13z" class="B C D E F G I"/><path d="M872.167 508.549v-17.715c0-.368-.298-.667-.667-.667s-.667.298-.667.667v17.715c0 .368.298.667.667.667s.667-.298.667-.667zm-.667-17.715l4 2.667-4-8-4 8z" class="H"/><path d="M920.5 423.5c0-7.18 10.521-13 23.5-13s23.5 5.82 23.5 13-10.521 13-23.5 13-23.5-5.82-23.5-13z" fill="#dae3f3" class="B C D E F G"/><g class="H"><path d="M944.167 459.758v-17.925c0-.368-.298-.667-.667-.667s-.667.299-.667.667v17.925c0 .368.298.667.667.667s.667-.298.667-.667zm-.667-17.925l4 2.667-4-8-4 8zm-47.719-50.399l25.49 30.64-.854.71-25.49-30.639zm-1.708 1.421l25.489 30.64-.854.71-25.489-30.639z"/></g><path d="M992.5 472.5c0-7.18 10.52-13 23.5-13s23.5 5.82 23.5 13-10.52 13-23.5 13-23.5-5.82-23.5-13z" fill="#00b050" class="B C D E F G"/><path d="M1017.167 459.061v-48.227c0-.368-.298-.667-.667-.667s-.667.298-.667.667v48.227c0 .368.298.667.667.667s.667-.298.667-.667zm-.667-48.227l4 2.667-4-8-4 8z" class="H"/><path d="M992.5 392.5c0-7.18 10.52-13 23.5-13s23.5 5.82 23.5 13-10.52 13-23.5 13-23.5-5.82-23.5-13z" fill="#ffe699" class="B C D E F G"/><g class="H"><path d="M1015.83 508.199v-17.366a.67.67 0 0 1 1.34 0v17.366a.67.67 0 0 1-1.34 0zm.67-17.366l-4 2.667 4-8 4 8zm-47.727-67.094l25.49-30.163-.849-.717-25.49 30.163zm-1.697-1.434l25.49-30.163-.849-.717-25.49 30.163z"/><path d="M894.508 390.833l97.987.477-.005 1.111-97.987-.476zm-.011 2.223l97.988.476-.006 1.111-97.987-.476z"/></g></g></svg>