<svg xmlns="http://www.w3.org/2000/svg" width="369" height="155" overflow="hidden" xmlns:v="https://vecta.io/nano"><style><![CDATA[.B{fill:#ff8f8f}.C{fill-opacity:.498}.D{stroke:#a5a5a5}.E{stroke-width:1.333}.F{fill:none}.G{stroke:#a6a6a6}.H{stroke-width:.333}.I{fill:#8faadc}.J{fill-rule:evenodd}.K{fill-opacity:.502}.L{stroke-miterlimit:8}.M{fill:#a6a6a6}.N{font-family:Arial,Arial_MSFontService,sans-serif}]]></style><defs><clipPath id="A"><path d="M807 171h369v155H807z"/></clipPath></defs><g clip-path="url(#A)" transform="translate(-807 -171)"><g class="D E F L"><path d="M887.5 221.945l6.232-27.445m-.232 33.741l86.42-31.741m-99.072 31.712L828.5 221.5"/></g><path d="M808.5 271.5h20v22h-20z" class="B C G H L"/><text font-size="16" transform="translate(1091.24 203)" class="M N">End Point</text><text font-size="16" transform="translate(1091.24 222)" class="M N">Switch</text><text font-size="16" transform="translate(1091.24 241)" class="M N">Link</text><g class="L"><g class="G H"><g class="B C"><path d="M888.5 302.5h20v22h-20zm-5-130h20v22h-20z"/></g><path d="M881.5 228c0-3.59 2.686-6.5 6-6.5s6 2.91 6 6.5-2.686 6.5-6 6.5-6-2.91-6-6.5z" class="I J K"/><path d="M969.5 174.5h21v22h-21z" class="B C"/><path d="M963.5 260a6.5 6.5 0 1 1 13 0 6.5 6.5 0 1 1-13 0z" class="I J K"/><path d="M808.5 210.5h20v22h-20z" class="B C"/><path d="M899.5 273.5c0-3.314 2.91-6 6.5-6s6.5 2.686 6.5 6-2.91 6-6.5 6-6.5-2.686-6.5-6z" class="I J K"/></g><path d="M969.5 253.744l10.198-57.244" class="D E F"/><path d="M1016.5 302.5h21v22h-21z" class="B C G H"/><path d="M1027.32 302.877 974.5 264.5" class="D E F"/><path d="M949.5 302.5h20v23h-20z" class="B C G H"/><g class="D E F"><path d="M959.5 303.212l10.198-36.712m-87.024-34L828.5 282.26"/><path d="M899.564 273.5l-71.064 8.697m70 20.12l7.486-22.817m59.155-24.078L891.5 232.5m-4 2l18.715 33.006"/></g><path d="M1016.5 250.5h21v23h-21z" class="B C G H"/><g class="D E F"><path d="M1017.3 261.662l-40.8-2.162m-12.725 0L912.5 273.235"/></g><g class="G H"><path d="M1071.5 189.5h14v15h-14z" class="B C"/><path d="M1073.5 216c0-3.038 2.24-5.5 5-5.5s5 2.462 5 5.5-2.24 5.5-5 5.5-5-2.462-5-5.5z" class="I J K"/></g><path d="M1085.64 235.5h-14.136" class="D E F"/></g></g></svg>