<svg xmlns="http://www.w3.org/2000/svg" width="400" height="255" overflow="hidden" xmlns:v="https://vecta.io/nano"><style><![CDATA[.B{fill-opacity:.498}.C{font-family:Arial,Arial_MSFontService,sans-serif}.D{stroke:#172c51}.E{stroke-width:1.333}.F{stroke-miterlimit:8}.G{fill:#a9d18e}.H{font-size:21px}.I{font-size:16px}]]></style><g class="D E F B"><path fill="#fff" d="M1.5 1.5h397v251H1.5z"/><path d="M8.5 212.5h383v32H8.5z" class="G"/></g><text transform="translate(180.301 237)" class="C H">Test</text><path d="M8.5 173.5h383v32H8.5z" class="B D E F G"/><text transform="translate(127.617 197)" class="C H">Core</text><text transform="translate(179.784 197)" class="C H">Container</text><path d="M8.5 133.5h59v32h-59z" class="B D E F G"/><text transform="translate(20.721 155)" class="C I">AOP</text><path d="M75.5 133.5h76v32h-76z" class="B D E F G"/><text transform="translate(84.352 155)" class="C I">Aspects</text><path d="M159.5 133.5h128v32h-128z" class="B D E F G"/><text font-family="DengXian,DengXian_MSFontService,sans-serif" transform="translate(168.337 154)" class="I">Instrumentation</text><path d="M294.5 133.5h97v32h-97z" class="B D E F G"/><text transform="translate(304.207 155)" class="C I">Messaging</text><path d="M8.5 48.5h192v77H8.5z" class="B D E F G"/><text transform="translate(38.807 82)" class="C H">Data Access /</text><text transform="translate(53.634 107)" class="C H">Integration</text><path d="M207.5 48.5h184v77h-184z" class="B D E F G"/><text transform="translate(277.371 95)" class="C H">Web</text><text fill="#385723" font-family="Arial Black,Arial Black_MSFontService,sans-serif" font-weight="900" font-size="24" transform="translate(86.831 32)">Spring Framework</text></svg>