<svg xmlns="http://www.w3.org/2000/svg" width="528" height="288" overflow="hidden" xmlns:v="https://vecta.io/nano"><style><![CDATA[.B{fill:#bfbfbf}.C{font-family:Arial,Arial_MSFontService,sans-serif}.D{font-size:12px}.E{stroke:#bfbfbf}.F{stroke-width:1.333}.G{stroke-miterlimit:8}.H{font-weight:700}.I{font-size:16px}]]></style><defs><clipPath id="A"><path d="M38 317h528v288H38z"/></clipPath></defs><g clip-path="url(#A)" transform="translate(-38 -317)"><g class="E F G"><g fill="none"><path d="M72.5 462.5a7 7 0 1 1 14 0 7 7 0 1 1-14 0zm-28 14.5c0-4.142 3.134-7.5 7-7.5s7 3.358 7 7.5-3.134 7.5-7 7.5-7-3.358-7-7.5zm28 14.5a7 7 0 1 1 14 0 7 7 0 1 1-14 0z"/></g><path fill="#f4b183" d="M142.5 455.5h43v43h-43z"/></g><text transform="translate(157.715 483)" class="C H I">C</text><g class="B"><path d="M86.51 461.833l49.101.723-.02 1.333-49.101-.722zm47.817-2.629l7.94 4.117-8.058 3.882zM58.5 475.833h76.879v1.334H58.5zm75.546-3.333l8 4-8 4zM86.51 489.833l49.101.723-.02 1.333-49.101-.722zm47.817-2.629l7.94 4.117-8.058 3.882z"/></g><path fill="#7030a0" fill-opacity=".4" d="M318.5 454.5h44v44h-44z" class="E F G"/><text font-family="DengXian,DengXian_MSFontService,sans-serif" transform="translate(330.632 481)" class="H I">VS</text><g class="B"><path d="M185.5 470.833h126.627v1.334H185.5zm125.294-3.333l8 4-8 4zm8 18.333h-4v1.333h4zm-5.333 0h-4v1.333h4zm-5.333 0h-4v1.333h4zm-5.333 0h-4v1.333h4zm-5.333 0h-4v1.333h4zm-5.333 0h-4v1.333h4zm-5.333 0h-4v1.333h4zm-5.333 0h-4v1.333h4zm-5.333 0h-4v1.333h4zm-5.333 0h-4v1.333h4zm-5.333 0h-4v1.333h4zm-5.333 0h-4v1.333h4zm-5.333 0h-4v1.333h4zm-5.333 0h-4v1.333h4zm-5.333 0h-4v1.333h4zm-5.333 0h-4v1.333h4zm-5.333 0h-4v1.333h4zm-5.333 0h-4v1.333h4zm-5.333 0h-4v1.333h4zm-5.333 0h-4v1.333h4zm-5.334 0h-4v1.333h4zm-5.333 0h-4v1.333h4zm-5.333 0h-4v1.333h4zm-5.334 0h-3.96v1.333h3.96zM193.5 482.5l-8 4 8 4z"/><text transform="translate(207.948 466)" class="C D">Who is primary?</text><text transform="translate(238.672 501)" class="C D">S1</text></g><path fill="#d9d9d9" d="M491.5 537.5h43v43h-43z" class="E F G"/><text transform="translate(502.46 565)" class="C H I">S2</text><path d="M490.846 559.507l-3.369-2.157.72-1.123 3.368 2.157zm-4.491-2.877l-3.368-2.157.719-1.123 3.368 2.158zm-4.491-2.876l-3.368-2.158.719-1.123 3.368 2.158zm-4.491-2.877l-3.368-2.158.719-1.123 3.368 2.158zM472.882 548l-3.368-2.158.719-1.122 3.368 2.157zm-4.491-2.877l-3.368-2.157.719-1.123L469.11 544zm-4.491-2.877l-3.368-2.157.719-1.123 3.368 2.158zm-4.491-2.876l-3.368-2.158.719-1.123 3.368 2.158zm-4.491-2.877l-3.368-2.158.719-1.123 3.368 2.158zm-4.491-2.877l-3.368-2.158.719-1.122 3.368 2.157zm-4.491-2.877l-3.368-2.157.719-1.123 3.369 2.157zm-4.491-2.877l-3.368-2.157.719-1.123 3.369 2.158zm-4.491-2.876l-3.368-2.158.719-1.123 3.369 2.158zm-4.49-2.877l-3.369-2.158.72-1.123 3.368 2.158zm-4.491-2.877l-3.369-2.158.72-1.122 3.368 2.157zm-4.491-2.877l-3.369-2.157.72-1.123 3.368 2.157zm-4.491-2.877l-3.369-2.157.72-1.123 3.368 2.158zm-4.491-2.876l-3.368-2.158.719-1.123 3.368 2.158zm-4.491-2.877l-3.368-2.158.719-1.122 3.368 2.157zm-4.491-2.877l-3.368-2.158.719-1.122 3.368 2.157zm-4.491-2.877l-3.368-2.157.719-1.123 3.368 2.158zm-4.491-2.877l-3.368-2.157.719-1.123 3.368 2.158zm-4.491-2.876l-3.368-2.158.719-1.123 3.368 2.158zm-4.491-2.877l-3.368-2.158.719-1.122 3.368 2.157zm-4.491-2.877l-3.368-2.158.719-1.122 3.368 2.157zm-4.491-2.877l-3.368-2.157.719-1.123 3.369 2.158zm-4.491-2.877l-3.368-2.157.719-1.123 3.369 2.158zm-4.491-2.876l-1.836-1.177.719-1.122 1.837 1.176zm-2.511 2.349L362.5 476.5l8.894.947z" class="B"/><path fill="#8faadc" d="M491.5 340.5h43v44h-43z" class="E F G"/><text transform="translate(502.46 368)" class="C H I">S1</text><g class="B"><path d="M490.763 362.001l-2.993 2.654.885.998 2.993-2.654zm-3.99 3.539l-2.993 2.654.885.998 2.993-2.654zm-3.99 3.539l-2.993 2.654.885.998 2.993-2.654zm-3.99 3.539l-2.993 2.654.885.998 2.993-2.654zm-3.99 3.539l-2.993 2.654.885.998 2.993-2.654zm-3.99 3.539l-2.993 2.654.885.998 2.993-2.654zm-3.99 3.539l-2.993 2.654.885.998 2.993-2.654zm-3.99 3.539l-2.993 2.654.885.998 2.993-2.654zm-3.99 3.539l-2.993 2.654.885.998 2.993-2.654zm-3.99 3.539l-2.993 2.654.885.998 2.993-2.654zm-3.99 3.539l-2.993 2.654.885.998 2.993-2.654zm-3.99 3.539l-2.993 2.654.885.998 2.993-2.654zm-3.99 3.539l-2.993 2.654.885.998 2.993-2.654zm-3.99 3.539l-2.993 2.654.885.998 2.993-2.654zm-3.99 3.539l-2.993 2.654.885.998 2.993-2.654zm-3.99 3.539l-2.993 2.654.885.998 2.993-2.654zm-3.99 3.539l-2.993 2.654.885.998 2.993-2.654zm-3.99 3.539l-2.993 2.654.885.998 2.993-2.654zm-3.99 3.539l-2.993 2.654.885.998 2.993-2.654zm-3.99 3.539l-2.993 2.654.885.998 2.993-2.654zm-3.99 3.539l-2.993 2.654.885.998 2.993-2.654zm-3.99 3.539l-2.993 2.654.885.998 2.993-2.654zm-3.99 3.539l-2.993 2.654.885.998 2.993-2.654zm-3.99 3.539L396 446.052l.885.998 2.993-2.654zm-3.99 3.539l-2.993 2.654.885.998 2.993-2.654zm-3.99 3.539l-2.993 2.654.885.998 2.993-2.654zm-3.99 3.539l-2.993 2.654.885.998 2.992-2.654zm-3.991 3.539l-2.992 2.654.884.998 2.993-2.654zm-3.99 3.539l-2.993 2.654.885.997 2.993-2.654zm-3.99 3.538l-2.993 2.654.885.998 2.992-2.654zm-3.991 3.539l-2.992 2.654.884.998 2.993-2.654zm-3.99 3.539l-.018.015.885.998.018-.016zm-1.232-3.363l-3.331 8.3 8.639-2.315zM503.167 384.5v144h-1.334v-144zm3.333 142.667l-4 8-4-8zm16.667 8v-4h-1.333v4zm0-5.333v-4h-1.333v4zm0-5.333v-4h-1.333v4zm0-5.333v-4h-1.333v4zm0-5.333v-4h-1.333v4zm0-5.333v-4h-1.333v4zm0-5.333v-4h-1.333v4zm0-5.333v-4h-1.333v4zm0-5.333v-4h-1.333v4zm0-5.333v-4h-1.333v4zm0-5.333v-4h-1.333v4zm0-5.333v-4h-1.333v4zm0-5.333v-4h-1.333v4zm0-5.333v-4h-1.333v4zm0-5.333v-4h-1.333v4zm0-5.333v-4h-1.333v4zm0-5.333v-4h-1.333v4zm0-5.333v-4h-1.333v4zm0-5.333v-4h-1.333v4zm0-5.333v-4h-1.333v4zm0-5.334v-4h-1.333v4zm0-5.333v-4h-1.333v4zm0-5.333v-4h-1.333v4zm0-5.334v-4h-1.333v4zm0-5.333v-4h-1.333v4zm0-5.333v-4h-1.333v4zm0-5.334v-4h-1.333v4zm3.333-4l-4-8-4 8z"/><text transform="translate(460.006 482)" class="C D">Update</text><text transform="translate(524.871 482)" class="C D">ACK</text><text transform="matrix(.756088 -.65447 .65447 .756088 405.815 431)" class="C D">Heart Beat</text><text transform="matrix(.843394 .537295 -.537295 .843394 397.699 494)" class="C D">Heart Beat</text></g><g fill="#7f7f7f"><path d="M156.5 453.868h1.088V351.5l-.667.667h327.088v-1.333H156.254v102.367l.667-.667h-.421zM482.676 355.5l8-4-8-4zm6.549 1.333h-4v1.333h4zm-5.333 0h-4v1.333h4zm-5.333 0h-4v1.333h4zm-5.333 0h-4v1.333h4zm-5.333 0h-4v1.333h4zm-5.333 0h-4v1.333h4zm-5.333 0h-4v1.333h4zm-5.333 0h-4v1.333h4zm-5.333 0h-4v1.333h4zm-5.333 0h-4v1.333h4zm-5.333 0h-4v1.333h4zm-5.333 0h-4v1.333h4zm-5.333 0h-4v1.333h4zm-5.333 0h-4v1.333h4zm-5.333 0h-4v1.333h4zm-5.333 0h-4v1.333h4zm-5.333 0h-4v1.333h4zm-5.333 0h-4v1.333h4zm-5.333 0h-4v1.333h4zm-5.333 0h-4v1.333h4zm-5.334 0h-4v1.333h4zm-5.333 0h-4v1.333h4zm-5.333 0h-4v1.333h4zm-5.334 0h-4v1.333h4zm-5.333 0h-4v1.333h4zm-5.333 0h-4v1.333h4zm-5.334 0h-4v1.333h4zm-5.333 0h-4v1.333h4zm-5.333 0h-4v1.333h4zm-5.334 0h-4v1.333h4zm-5.333 0h-4v1.333h4zm-5.333 0h-4v1.333h4zm-5.334 0h-4v1.333h4zm-5.333 0h-4v1.333h4zm-5.333 0h-4v1.333h4zm-5.334 0h-4v1.333h4zm-5.333 0h-4v1.333h4zm-5.333 0h-4v1.333h4zm-5.334 0h-4v1.333h4zm-5.333 0h-4v1.333h4zm-5.333 0h-4v1.333h4zm-5.334 0h-4v1.333h4zm-5.333 0h-4v1.333h4zm-5.333 0h-4v1.333h4zm-5.334 0h-4v1.333h4zm-5.333 0h-4v1.333h4zm-5.333 0h-4v1.333h4zm-5.334 0h-4v1.333h4zm-5.333 0h-4v1.333h4zm-5.333 0h-4v1.333h4zm-5.334 0h-4v1.333h4zm-5.333 0h-4v1.333h4zm-5.333 0h-4v1.333h4zm-5.334 0h-4v1.333h4zm-5.333 0h-4v1.333h4zm-5.333 0h-4v1.333h4zm-5.334 0h-4v1.333h4zm-5.333 0h-4v1.333h4zm-5.333 0h-4v1.333h4zm-5.334 0h-4v1.333h4zm-5.333 0h-4v1.333h4zm-5.333 0h-1.059v4.275h1.334V357.5l-.667.667h.392zm-1.059 5.608v4h1.334v-4zm0 5.333v4h1.334v-4zm0 5.333v4h1.334v-4zm0 5.333v4h1.334v-4zm0 5.333v4h1.334v-4zm0 5.333v4h1.334v-4zm0 5.333v4h1.334v-4zm0 5.333v4h1.334v-4zm0 5.333v4h1.334v-4zm0 5.333v4h1.334v-4zm0 5.333v4h1.334v-4zm0 5.333v4h1.334v-4zm0 5.333v4h1.334v-4zm0 5.333v4h1.334v-4zm0 5.333v4h1.334v-4zm0 5.333v4h1.334v-4zm0 5.333v.976h1.334v-.976zm-3.333-.357l4 8 4-8z"/></g><text transform="translate(487.209 334)" class="B C D">(primary)</text><text transform="translate(491.616 594)" class="B C D">(backup)</text><text transform="translate(304.635 515)" class="B C D">(view server)</text><text transform="translate(48.053 515)" class="B C D">(clients)</text></g></svg>