<?xml version="1.0" standalone="no"?>
<!DOCTYPE svg PUBLIC "-//W3C//DTD SVG 20010904//EN"
 "http://www.w3.org/TR/2001/REC-SVG-20010904/DTD/svg10.dtd">
<svg version="1.0" xmlns="http://www.w3.org/2000/svg"
 width="256.000000pt" height="256.000000pt" viewBox="0 0 256.000000 256.000000"
 preserveAspectRatio="xMidYMid meet">
<metadata>
Created by potrace 1.14, written by Peter Selinger 2001-2017
</metadata>
<g transform="translate(0.000000,256.000000) scale(0.100000,-0.100000)"
fill="#000000" stroke="none">
<path d="M1277 2134 c-1 -2 -29 -4 -62 -5 -66 -3 -174 -27 -245 -55 -47 -18
-151 -73 -160 -83 -3 -3 -24 -19 -47 -34 -55 -38 -140 -128 -188 -200 -25 -38
-47 -59 -64 -63 -107 -25 -210 -75 -280 -139 -31 -27 -61 -57 -67 -65 -7 -8
-24 -28 -38 -45 -39 -45 -92 -161 -110 -240 -19 -86 -15 -236 9 -315 75 -244
283 -424 529 -457 22 -3 379 -6 791 -6 831 0 815 -1 934 66 94 53 153 110 206
199 137 231 77 529 -140 693 -69 52 -192 104 -227 97 -4 -1 -14 22 -24 51
-104 313 -366 541 -674 586 -97 14 -139 18 -143 15z m193 -244 c109 -37 180
-81 262 -162 87 -87 143 -189 173 -316 24 -102 42 -119 135 -132 158 -23 264
-111 296 -246 34 -147 -37 -294 -175 -362 l-56 -27 -766 -2 c-733 -3 -769 -2
-822 16 -231 80 -350 303 -284 532 46 158 203 287 367 300 51 4 84 31 124 102
83 150 229 261 405 308 92 24 252 19 341 -11z"/>
</g>
</svg>
